<?xml version="1.0" encoding="utf-8"?>
<!-- Generator: Adobe Illustrator 16.0.0, SVG Export Plug-In . SVG Version: 6.00 Build 0)  -->
<!DOCTYPE svg PUBLIC "-//W3C//DTD SVG 1.1//EN" "http://www.w3.org/Graphics/SVG/1.1/DTD/svg11.dtd">
<svg version="1.1" id="Capa_1" xmlns="http://www.w3.org/2000/svg" xmlns:xlink="http://www.w3.org/1999/xlink" x="0px" y="0px"
	 width="1080px" height="1080px" viewBox="0 0 1080 1080" enable-background="new 0 0 1080 1080" xml:space="preserve">
<rect fill="none" width="1080" height="1080"/>
<rect fill="none" width="1080" height="1080"/>
<rect fill="none" width="1080" height="1080"/>
<g>
	<path d="M275.072,465.677v-23.106c0-3.464-1.134-6.402-3.404-8.831c-2.27-2.421-5.02-3.632-8.259-3.632
		c-3.239,0-5.992,1.21-8.262,3.632c-2.271,2.428-3.402,5.367-3.402,8.831v181.659c0,3.462,1.131,6.402,3.402,8.827
		c2.27,2.424,5.023,3.635,8.262,3.635c3.24,0,5.99-1.211,8.259-3.635c2.27-2.425,3.404-5.365,3.404-8.827v-21.295h14.669v21.295
		c0,3.981-0.681,7.702-2.037,11.161c-1.357,3.467-3.231,6.492-5.623,9.089c-2.395,2.598-5.188,4.633-8.382,6.103
		c-3.193,1.467-6.623,2.206-10.291,2.206c-3.671,0-7.102-0.739-10.295-2.206c-3.193-1.47-5.986-3.505-8.379-6.103
		c-2.395-2.597-4.269-5.622-5.624-9.089c-1.357-3.459-2.034-7.18-2.034-11.161V442.571c0-3.983,0.677-7.7,2.034-11.165
		c1.355-3.46,3.229-6.492,5.624-9.089c2.393-2.598,5.186-4.63,8.379-6.1c3.193-1.47,6.624-2.208,10.295-2.208
		c3.668,0,7.098,0.738,10.291,2.208c3.194,1.47,5.987,3.502,8.382,6.1c2.392,2.598,4.265,5.629,5.623,9.089
		c1.356,3.465,2.037,7.182,2.037,11.165v23.106H275.072z"/>
	<path fill="none" stroke="#000000" stroke-width="0.75" stroke-miterlimit="10" d="M275.072,465.677v-23.106
		c0-3.464-1.134-6.402-3.404-8.831c-2.27-2.421-5.02-3.632-8.259-3.632c-3.239,0-5.992,1.21-8.262,3.632
		c-2.271,2.428-3.402,5.367-3.402,8.831v181.659c0,3.462,1.131,6.402,3.402,8.827c2.27,2.424,5.023,3.635,8.262,3.635
		c3.24,0,5.99-1.211,8.259-3.635c2.27-2.425,3.404-5.365,3.404-8.827v-21.295h14.669v21.295c0,3.981-0.681,7.702-2.037,11.161
		c-1.357,3.467-3.231,6.492-5.623,9.089c-2.395,2.598-5.188,4.633-8.382,6.103c-3.193,1.467-6.623,2.206-10.291,2.206
		c-3.671,0-7.102-0.739-10.295-2.206c-3.193-1.47-5.986-3.505-8.379-6.103c-2.395-2.597-4.269-5.622-5.624-9.089
		c-1.357-3.459-2.034-7.18-2.034-11.161V442.571c0-3.983,0.677-7.7,2.034-11.165c1.355-3.46,3.229-6.492,5.624-9.089
		c2.393-2.598,5.186-4.63,8.379-6.1c3.193-1.47,6.624-2.208,10.295-2.208c3.668,0,7.098,0.738,10.291,2.208
		c3.194,1.47,5.987,3.502,8.382,6.1c2.392,2.598,4.265,5.629,5.623,9.089c1.356,3.465,2.037,7.182,2.037,11.165v23.106H275.072z"/>
	<polygon points="354.784,415.825 354.784,549.446 378.11,549.446 378.11,415.825 392.779,415.825 392.779,650.972 378.11,650.972 
		378.11,565.547 354.784,565.547 354.784,650.972 340.114,650.972 340.114,415.825 	"/>
	<polygon fill="none" stroke="#000000" stroke-width="0.75" stroke-miterlimit="10" points="354.784,415.825 354.784,549.446 
		378.11,549.446 378.11,415.825 392.779,415.825 392.779,650.972 378.11,650.972 378.11,565.547 354.784,565.547 354.784,650.972 
		340.114,650.972 340.114,415.825 	"/>
	<path d="M481.147,650.972v-85.425h-23.326v85.425h-14.669V442.571c0-3.983,0.678-7.7,2.036-11.166
		c1.354-3.46,3.229-6.491,5.623-9.089c2.394-2.596,5.186-4.628,8.379-6.099c3.193-1.47,6.624-2.207,10.295-2.207
		c3.668,0,7.099,0.737,10.292,2.207c3.195,1.471,5.985,3.503,8.379,6.099c2.394,2.599,4.269,5.629,5.623,9.089
		c1.358,3.466,2.039,7.183,2.039,11.166v208.401H481.147z M481.147,442.571c0-3.462-1.133-6.402-3.403-8.83
		c-2.271-2.421-5.021-3.633-8.26-3.633c-3.237,0-5.992,1.212-8.262,3.633c-2.27,2.427-3.401,5.367-3.401,8.83v106.875h23.326
		V442.571z"/>
	<path fill="none" stroke="#000000" stroke-width="0.75" stroke-miterlimit="10" d="M481.147,650.972v-85.425h-23.326v85.425
		h-14.669V442.571c0-3.983,0.678-7.7,2.036-11.166c1.354-3.46,3.229-6.491,5.623-9.089c2.394-2.596,5.186-4.628,8.379-6.099
		c3.193-1.47,6.624-2.207,10.295-2.207c3.668,0,7.099,0.737,10.292,2.207c3.195,1.471,5.985,3.503,8.379,6.099
		c2.394,2.599,4.269,5.629,5.623,9.089c1.358,3.466,2.039,7.183,2.039,11.166v208.401H481.147z M481.147,442.571
		c0-3.462-1.133-6.402-3.403-8.83c-2.271-2.421-5.021-3.633-8.26-3.633c-3.237,0-5.992,1.212-8.262,3.633
		c-2.27,2.427-3.401,5.367-3.401,8.83v106.875h23.326V442.571z"/>
	<path d="M583.363,650.193c-3.199,1.729-6.796,2.595-10.793,2.595c-3.677,0-7.113-0.739-10.313-2.206
		c-3.196-1.47-5.997-3.505-8.394-6.103c-2.399-2.597-4.277-5.622-5.635-9.089c-1.361-3.459-2.039-7.18-2.039-11.161V415.825h14.67
		v208.405c0,3.462,1.131,6.403,3.402,8.827c2.268,2.424,5.023,3.635,8.26,3.635c3.24,0,5.99-1.211,8.262-3.635
		c2.27-2.424,3.402-5.365,3.402-8.827V415.825h14.67v208.405c0,3.462,1.131,6.403,3.4,8.827s5.023,3.635,8.262,3.635
		c3.239,0,5.988-1.211,8.26-3.635c2.267-2.424,3.404-5.365,3.404-8.827V415.825h14.666v208.405c0,3.981-0.678,7.702-2.039,11.161
		c-1.358,3.467-3.238,6.492-5.635,9.089c-2.396,2.598-5.197,4.633-8.395,6.103c-3.197,1.467-6.636,2.206-10.311,2.206
		c-3.997,0-7.64-0.865-10.915-2.595c-3.278-1.73-5.956-3.806-8.034-6.232C589.279,646.388,586.561,648.463,583.363,650.193"/>
	<path fill="none" stroke="#000000" stroke-width="0.75" stroke-miterlimit="10" d="M583.363,650.193
		c-3.199,1.729-6.796,2.595-10.793,2.595c-3.677,0-7.113-0.739-10.313-2.206c-3.196-1.47-5.997-3.505-8.394-6.103
		c-2.399-2.597-4.277-5.622-5.635-9.089c-1.361-3.459-2.039-7.18-2.039-11.161V415.825h14.67v208.405
		c0,3.462,1.131,6.403,3.402,8.827c2.268,2.424,5.023,3.635,8.26,3.635c3.24,0,5.99-1.211,8.262-3.635
		c2.27-2.424,3.402-5.365,3.402-8.827V415.825h14.67v208.405c0,3.462,1.131,6.403,3.4,8.827s5.023,3.635,8.262,3.635
		c3.239,0,5.988-1.211,8.26-3.635c2.267-2.424,3.404-5.365,3.404-8.827V415.825h14.666v208.405c0,3.981-0.678,7.702-2.039,11.161
		c-1.358,3.467-3.238,6.492-5.635,9.089c-2.396,2.598-5.197,4.633-8.395,6.103c-3.197,1.467-6.636,2.206-10.311,2.206
		c-3.997,0-7.64-0.865-10.915-2.595c-3.278-1.73-5.956-3.806-8.034-6.232C589.279,646.388,586.561,648.463,583.363,650.193z"/>
	<path d="M725.218,650.972v-85.425h-23.326v85.425h-14.67V442.571c0-3.983,0.678-7.7,2.034-11.166
		c1.354-3.46,3.229-6.491,5.625-9.089c2.395-2.596,5.185-4.628,8.379-6.099c3.192-1.47,6.624-2.207,10.294-2.207
		s7.099,0.737,10.294,2.207c3.194,1.471,5.984,3.503,8.379,6.099c2.392,2.599,4.267,5.629,5.623,9.089
		c1.356,3.466,2.036,7.183,2.036,11.166v208.401H725.218z M725.218,442.571c0-3.462-1.136-6.402-3.404-8.83
		c-2.27-2.421-5.019-3.633-8.26-3.633c-3.238,0-5.992,1.212-8.262,3.633c-2.271,2.427-3.4,5.367-3.4,8.83v106.875h23.326V442.571z"
		/>
	<path fill="none" stroke="#000000" stroke-width="0.75" stroke-miterlimit="10" d="M725.218,650.972v-85.425h-23.326v85.425h-14.67
		V442.571c0-3.983,0.678-7.7,2.034-11.166c1.354-3.46,3.229-6.491,5.625-9.089c2.395-2.596,5.185-4.628,8.379-6.099
		c3.192-1.47,6.624-2.207,10.294-2.207s7.099,0.737,10.294,2.207c3.194,1.471,5.984,3.503,8.379,6.099
		c2.392,2.599,4.267,5.629,5.623,9.089c1.356,3.466,2.036,7.183,2.036,11.166v208.401H725.218z M725.218,442.571
		c0-3.462-1.136-6.402-3.404-8.83c-2.27-2.421-5.019-3.633-8.26-3.633c-3.238,0-5.992,1.212-8.262,3.633
		c-2.271,2.427-3.4,5.367-3.4,8.83v106.875h23.326V442.571z"/>
	<path d="M828.255,650.972v-72.963c0-3.46-1.136-6.403-3.402-8.826c-2.271-2.425-5.023-3.636-8.261-3.636h-11.664v85.425H790.26
		V415.825h26.332c3.668,0,7.096,0.739,10.292,2.208c3.192,1.475,5.983,3.505,8.382,6.103c2.39,2.595,4.265,5.625,5.621,9.084
		c1.355,3.469,2.036,7.189,2.036,11.167v92.856c0,5.544-1.846,10.301-5.532,14.281c-3.687,3.985-8.098,5.972-13.224,5.972
		c5.126,0.173,9.537,2.208,13.224,6.103c3.687,3.894,5.532,8.61,5.532,14.151v73.222 M824.853,435.56
		c-2.271-2.423-5.023-3.636-8.261-3.636h-11.664v117.522h11.664c3.237,0,5.989-1.21,8.261-3.632
		c2.267-2.424,3.402-5.366,3.402-8.831v-92.597C828.255,440.928,827.119,437.984,824.853,435.56"/>
	<path fill="none" stroke="#000000" stroke-width="0.75" stroke-miterlimit="10" d="M828.255,650.972v-72.963
		c0-3.46-1.136-6.403-3.402-8.826c-2.271-2.425-5.023-3.636-8.261-3.636h-11.664v85.425H790.26V415.825h26.332
		c3.668,0,7.096,0.739,10.292,2.208c3.192,1.475,5.983,3.505,8.382,6.103c2.39,2.595,4.265,5.625,5.621,9.084
		c1.355,3.469,2.036,7.189,2.036,11.167v92.856c0,5.544-1.846,10.301-5.532,14.281c-3.687,3.985-8.098,5.972-13.224,5.972
		c5.126,0.173,9.537,2.208,13.224,6.103c3.687,3.894,5.532,8.61,5.532,14.151v73.222 M824.853,435.56
		c-2.271-2.423-5.023-3.636-8.261-3.636h-11.664v117.522h11.664c3.237,0,5.989-1.21,8.261-3.632
		c2.267-2.424,3.402-5.366,3.402-8.831v-92.597C828.255,440.928,827.119,437.984,824.853,435.56z"/>
</g>
</svg>
